<?xml version="1.0" encoding="utf-8"?>
<!-- Generator: Adobe Illustrator 27.5.0, SVG Export Plug-In . SVG Version: 6.00 Build 0)  -->
<svg version="1.1" xmlns="http://www.w3.org/2000/svg" xmlns:xlink="http://www.w3.org/1999/xlink" x="0px" y="0px"
	 viewBox="0 0 500 500" style="enable-background:new 0 0 500 500;" xml:space="preserve">
<g id="BACKGROUND">
	<g>
		<rect style="fill:#C5EEE4;" width="500" height="500"/>
		<g>
			<path style="fill:#E3FFEE;" d="M43.037,384.344h380.325c25.112,0,57.883-18.609,52.052-80.472
				c-0.688-7.304-1.235-15.246-6.715-20.124c-7.826-6.965-19.647-5.6-30.118-5.956c-14.362-0.488-29.079-5.45-38.796-16.036
				c-12.942-14.099-14.727-34.787-16.826-53.811c-2.099-19.023-6.366-39.997-21.886-51.197
				c-10.836-7.819-24.916-9.112-38.247-10.034c-21.391-1.479-45.306-1.866-61.273,12.447
				c-11.474,10.285-16.432,26.323-27.779,36.749c-10.427,9.581-25.212,13.278-39.368,12.938
				c-14.856-0.357-29.332-4.728-44.135-6.028c-14.803-1.3-31.143,1.127-41.412,11.868c-18.357,19.2-9.497,55.539-30.327,72.023
				c-10.087,7.982-24.321,8.566-35.134,15.534c-16,10.311-20.582,32.615-15.762,51.029C30.591,364.56,36.316,374.733,43.037,384.344
				z"/>
			
				<ellipse transform="matrix(0.7731 -0.6343 0.6343 0.7731 -148.0373 95.3992)" style="fill:#E3FFEE;" cx="59.321" cy="254.611" rx="17.274" ry="11.311"/>
			<path style="fill:#E3FFEE;" d="M344.803,133.814c2.047-2.356,5.527-2.767,8.646-2.658c1.169,0.041,2.38,0.144,3.402,0.714
				c1.472,0.821,2.28,2.442,2.955,3.986c0.654,1.497,1.261,3.252,0.515,4.706C357.57,145.925,336.871,142.948,344.803,133.814z"/>
			<path style="fill:#E3FFEE;" d="M99.686,194.751c0.236-1.008,0.652-1.973,1.222-2.837c1.538-2.33,4.136-3.811,6.845-4.486
				c2.709-0.675,5.546-0.618,8.33-0.406c0.628,0.048,1.279,0.111,1.824,0.427c0.842,0.489,1.258,1.491,1.383,2.457
				c0.292,2.27-0.736,4.557-2.269,6.257c-2.347,2.604-7.707,6.3-11.297,6.695C101.273,203.348,98.794,198.561,99.686,194.751z"/>
			<path style="fill:#E3FFEE;" d="M416.221,258.942c-3.461-2.209-6.513-5.526-7.122-9.587c-0.608-4.061,2.04-8.709,6.118-9.186
				c2.014-0.236,4,0.515,5.872,1.295c6.197,2.582,19.675,8.882,19.532,17.244C440.455,268.521,420.393,261.604,416.221,258.942z"/>
		</g>
	</g>
</g>
<g id="OBJECTS">
	<rect x="18.755" y="384.344" style="fill:#03A89E;" width="462.491" height="1.709"/>
	<g>
		<g>
			<g>
				<rect x="254.859" y="247.271" style="fill:#03A89E;" width="98.258" height="31.532"/>
				<rect x="258.125" y="250.786" style="fill:#039898;" width="91.726" height="24.503"/>
				<path style="fill:#03BEAE;" d="M307.514,261.583c0,1.948-1.579,3.527-3.527,3.527c-1.948,0-3.527-1.579-3.527-3.527
					c0-1.948,1.579-3.527,3.527-3.527C305.935,258.056,307.514,259.635,307.514,261.583z"/>
			</g>
			<g>
				<rect x="254.859" y="278.804" style="fill:#03BEAE;" width="98.258" height="31.532"/>
				<rect x="258.125" y="282.318" style="fill:#03ACA6;" width="91.726" height="24.503"/>
				<path style="fill:#03D9C7;" d="M307.514,293.626c0,1.948-1.579,3.527-3.527,3.527c-1.948,0-3.527-1.579-3.527-3.527
					c0-1.948,1.579-3.527,3.527-3.527C305.935,290.1,307.514,291.679,307.514,293.626z"/>
			</g>
			<g>
				<rect x="254.859" y="310.336" style="fill:#03A89E;" width="98.258" height="31.532"/>
				<rect x="258.125" y="313.851" style="fill:#039898;" width="91.726" height="24.503"/>
				<path style="fill:#03BEAE;" d="M307.514,326.102c0,1.948-1.579,3.527-3.527,3.527c-1.948,0-3.527-1.579-3.527-3.527
					c0-1.948,1.579-3.527,3.527-3.527C305.935,322.576,307.514,324.155,307.514,326.102z"/>
			</g>
			<g>
				<rect x="254.859" y="341.868" style="fill:#03BEAE;" width="98.258" height="31.532"/>
				<rect x="258.125" y="345.383" style="fill:#03ACA6;" width="91.726" height="24.503"/>
				<path style="fill:#03D9C7;" d="M307.514,357.634c0,1.948-1.579,3.527-3.527,3.527c-1.948,0-3.527-1.579-3.527-3.527
					c0-1.948,1.579-3.527,3.527-3.527C305.935,354.108,307.514,355.687,307.514,357.634z"/>
			</g>
			<g>
				<polygon style="fill:#039898;" points="337.768,384.344 335.06,384.344 332.951,373.401 339.877,373.401 				"/>
				<polygon style="fill:#03A89E;" points="272.916,384.344 270.208,384.344 268.099,373.401 275.025,373.401 				"/>
			</g>
			<rect x="291.815" y="364.374" style="fill:#03D9C7;" width="24.346" height="2.185"/>
			<rect x="291.815" y="333.104" style="fill:#03BEAE;" width="24.346" height="2.185"/>
			<rect x="291.815" y="301.833" style="fill:#03D9C7;" width="24.346" height="2.185"/>
			<rect x="291.815" y="270.563" style="fill:#03BEAE;" width="24.346" height="2.185"/>
		</g>
		<g>
			<rect x="297.797" y="380.318" style="fill:#EF4339;" width="35.433" height="4.026"/>
			<rect x="306.996" y="381.833" style="fill:#FFDBC5;" width="20.96" height="0.996"/>
			
				<rect x="301.216" y="380.318" transform="matrix(-1 -1.224647e-16 1.224647e-16 -1 605.1999 762.9803)" style="fill:#924339;" width="2.767" height="2.344"/>
			<rect x="294.056" y="376.293" style="fill:#FF9D76;" width="35.433" height="4.026"/>
			
				<rect x="297.91" y="376.293" transform="matrix(-1 -1.224647e-16 1.224647e-16 -1 598.1915 756.6107)" style="fill:#FFDBC5;" width="2.371" height="4.026"/>
			<rect x="300.864" y="372.267" style="fill:#EF4339;" width="35.433" height="4.026"/>
			<rect x="302.981" y="373.079" style="fill:#FFDBC5;" width="1.762" height="2.401"/>
			<rect x="306.996" y="373.284" style="fill:#FFDBC5;" width="20.96" height="0.498"/>
			<rect x="306.996" y="374.768" style="fill:#FFDBC5;" width="20.96" height="0.498"/>
			<rect x="292.904" y="368.241" style="fill:#FFDBC5;" width="35.433" height="4.026"/>
			<rect x="301.154" y="369.472" style="fill:#FF9D76;" width="24.092" height="0.782"/>
			<rect x="294.773" y="368.241" style="fill:#FF9D76;" width="2.845" height="4.026"/>
			<rect x="298.501" y="368.241" style="fill:#FF9D76;" width="1.189" height="4.026"/>
		</g>
		<g>
			<path style="fill:#FFDBC5;" d="M368.665,258.567h-41.759c0,0-6.002,18.899,9.833,24.519l-1.149,4.69h24.391l-1.15-4.69
				C374.668,277.466,368.665,258.567,368.665,258.567z"/>
			<path style="fill:#FFFFFF;" d="M329.416,258.567c0,0-4.681,16.054,6.429,22.046c3.522,1.447,7.645,2.281,12.054,2.281
				c3.997,0,7.758-0.686,11.051-1.892c12.1-5.649,7.206-22.435,7.206-22.435H329.416z"/>
			<path style="fill:#C1F3FF;" d="M358.95,281.002c8.202-3.829,8.595-12.77,7.997-18.137c-2.638,0.057-5.281,0.173-7.891-0.188
				c-1.962-0.271-3.882-0.809-5.853-1.005c-3.032-0.301-6.077,0.216-9.094,0.642c-2.646,0.374-5.307,0.677-7.98,0.766
				c-2.433,0.081-4.911-0.452-7.313-0.318c-0.063,0.003-0.121,0.02-0.183,0.027c-0.59,5.185-0.275,13.785,7.211,17.823
				c3.522,1.447,7.645,2.281,12.054,2.281C351.896,282.894,355.658,282.208,358.95,281.002z"/>
			<path style="fill:#FFB6A2;" d="M359.097,275.009c-2.401,0.255-4.71,1.09-7.108,1.376c-5.838,0.695-11.964-1.878-17.517,0.056
				c-0.415,0.144-1.518,0.497-2.602,0.908c1.022,1.253,2.319,2.371,3.974,3.264c3.522,1.447,7.645,2.281,12.054,2.281
				c3.997,0,7.758-0.686,11.051-1.892c2.61-1.218,4.426-2.956,5.674-4.931C363.057,275.061,360.995,274.807,359.097,275.009z"/>
			<path style="fill:#BD7B86;" d="M358.787,276.677c0,0.111-0.17,0.201-0.38,0.201c-0.21,0-0.38-0.09-0.38-0.201
				c0-0.111,0.17-0.201,0.38-0.201C358.617,276.475,358.787,276.565,358.787,276.677z"/>
			<path style="fill:#EF4339;" d="M348.116,269.288c-0.451-1.126-2.108-1.965-4.099-1.965c-2.336,0-4.23,1.152-4.23,2.572
				c0,1.117,1.177,2.058,2.813,2.413l1.013,1.142l-0.117-1.015c0.173,0.013,0.343,0.032,0.522,0.032
				c1.941,0,3.558-0.799,4.057-1.882l2.174,1.653l0.145-4.407L348.116,269.288z M341.905,269.745c-0.325,0-0.588-0.263-0.588-0.588
				c0-0.325,0.263-0.588,0.588-0.588c0.325,0,0.588,0.263,0.588,0.588C342.493,269.482,342.23,269.745,341.905,269.745z"/>
			<path style="fill:#BD7B86;" d="M339.788,276.878c0,0.222-0.341,0.402-0.761,0.402c-0.42,0-0.761-0.18-0.761-0.402
				s0.341-0.402,0.761-0.402C339.447,276.475,339.788,276.655,339.788,276.878z"/>
			<path style="fill:#BD7B86;" d="M344.015,280.544c0,0.222-0.341,0.402-0.761,0.402s-0.761-0.18-0.761-0.402
				c0-0.222,0.341-0.402,0.761-0.402S344.015,280.322,344.015,280.544z"/>
			<path style="fill:#BD7B86;" d="M349.769,277.682c0,0.222-0.341,0.402-0.761,0.402s-0.761-0.18-0.761-0.402
				c0-0.222,0.341-0.402,0.761-0.402S349.769,277.46,349.769,277.682z"/>
			<path style="fill:#BD7B86;" d="M356.425,279.74c0,0.222-0.341,0.402-0.761,0.402c-0.42,0-0.761-0.18-0.761-0.402
				c0-0.222,0.341-0.402,0.761-0.402C356.085,279.338,356.425,279.518,356.425,279.74z"/>
			<path style="fill:#BD7B86;" d="M352.177,280.544c0,0.111-0.17,0.201-0.38,0.201c-0.21,0-0.38-0.09-0.38-0.201
				c0-0.111,0.17-0.201,0.38-0.201C352.007,280.343,352.177,280.433,352.177,280.544z"/>
			<path style="fill:#BD7B86;" d="M347.786,279.74c0,0.111-0.17,0.201-0.38,0.201c-0.21,0-0.38-0.09-0.38-0.201
				c0-0.111,0.17-0.201,0.38-0.201C347.616,279.539,347.786,279.629,347.786,279.74z"/>
			<path style="fill:#BD7B86;" d="M345.09,277.481c0,0.111-0.17,0.201-0.38,0.201c-0.21,0-0.38-0.09-0.38-0.201
				c0-0.111,0.17-0.201,0.38-0.201C344.92,277.28,345.09,277.37,345.09,277.481z"/>
			<path style="fill:#BD7B86;" d="M338.266,279.74c0,0.111-0.17,0.201-0.38,0.201c-0.21,0-0.38-0.09-0.38-0.201
				c0-0.111,0.17-0.201,0.38-0.201C338.096,279.539,338.266,279.629,338.266,279.74z"/>
			<path style="fill:#BD7B86;" d="M361.403,278.084c0,0.111-0.17,0.201-0.38,0.201c-0.21,0-0.38-0.09-0.38-0.201
				c0-0.111,0.17-0.201,0.38-0.201C361.233,277.883,361.403,277.973,361.403,278.084z"/>
			<path style="fill:#BD7B86;" d="M358.906,267.323h-2.187l-1.054,8.707h4.296L358.906,267.323z M357.158,268.738h1.248l0.181,1.556
				h-1.619L357.158,268.738z M356.779,271.558h2.08l0.199,2.08h-2.49L356.779,271.558z"/>
		</g>
		<g>
			<polygon style="fill:#03A89E;" points="381.991,287.776 371.908,287.776 370.854,271.505 383.045,271.505 			"/>
			<polygon style="fill:#037381;" points="382.861,274.351 387.309,274.351 387.309,282.894 382.194,285.588 382.194,283.798 
				385.744,282.16 386.026,275.709 382.783,275.709 			"/>
			<polygon style="fill:#A7E9AF;" points="371.767,285.588 371.908,287.776 381.991,287.776 382.133,285.588 			"/>
			<g>
				<polygon style="fill:#03525D;" points="384.656,282.634 382.194,283.798 382.194,285.588 384.572,284.338 				"/>
				<polygon style="fill:#03525D;" points="382.783,275.709 384.996,275.709 385.063,274.351 382.861,274.351 				"/>
			</g>
		</g>
		<g>
			<g>
				<polygon style="fill:#03A89E;" points="433.873,319.147 397.27,319.147 390.299,384.344 440.844,384.344 				"/>
				<g>
					<path style="fill:#FFFFFF;" d="M428.932,324.919c0,1.136-0.921,2.057-2.057,2.057c-1.136,0-2.057-0.921-2.057-2.057
						c0-1.136,0.921-2.057,2.057-2.057C428.011,322.862,428.932,323.783,428.932,324.919z"/>
					<path style="fill:#FFFFFF;" d="M406.326,324.919c0,1.136-0.921,2.057-2.057,2.057c-1.136,0-2.057-0.921-2.057-2.057
						c0-1.136,0.921-2.057,2.057-2.057C405.405,322.862,406.326,323.783,406.326,324.919z"/>
					<path style="fill:#03869E;" d="M427.154,324.918h-0.558v-13.966c0-6.079-4.945-11.025-11.023-11.025
						c-6.079,0-11.025,4.945-11.025,11.025v13.159h-0.558v-13.159c0-6.387,5.196-11.583,11.583-11.583s11.582,5.196,11.582,11.583
						V324.918z"/>
				</g>
			</g>
			<g>
				<circle style="fill:#EF4339;" cx="396.842" cy="360.673" r="23.671"/>
				<path style="fill:#FFDBC5;" d="M418.545,370.112c0.157-0.36,0.29-0.732,0.429-1.102c-4.678-0.651-8.775-1.685-12.345-3.002
					c0.546-3.332,2.439-6.505,5.326-8.822c2.088-1.677,4.639-2.883,7.489-3.568c-0.115-0.37-0.265-0.724-0.397-1.086
					c-2.962,0.731-5.623,1.998-7.812,3.757c-3.039,2.438-5.065,5.771-5.706,9.295c-2.347-0.931-4.475-1.975-6.376-3.113
					c5.4-8.852,7.114-18.2,7.658-23.246c-0.365-0.17-0.73-0.34-1.105-0.492c-0.483,4.818-2.1,14.225-7.524,23.118
					c-2.174-1.389-4.06-2.885-5.687-4.437c1.301-0.544,2.53-1.34,3.399-2.551c1.289-1.796,1.475-4.069,1.502-5.622
					c0.073-4.178-0.992-8.408-2.975-12.117c-0.407,0.041-0.801,0.122-1.202,0.184c2.017,3.62,3.099,7.795,3.027,11.913
					c-0.039,2.223-0.447,3.804-1.286,4.971c-0.82,1.142-2.061,1.859-3.362,2.335c-5.206-5.333-7.566-11.112-8.637-14.998
					c-0.333,0.242-0.668,0.48-0.987,0.738c1.137,3.919,3.499,9.468,8.383,14.644c-0.72,0.185-1.426,0.319-2.054,0.414
					c-4.902,0.743-9.944,0.617-14.812-0.352c-0.06,0.379-0.133,0.754-0.174,1.14c2.828,0.56,5.713,0.843,8.598,0.843
					c2.196,0,4.393-0.164,6.562-0.493c0.842-0.128,1.812-0.312,2.791-0.608c1.773,1.748,3.864,3.43,6.295,4.982
					c-3.735,5.787-9.143,11.266-16.97,15.015c0.302,0.286,0.606,0.57,0.923,0.839c7.829-3.849,13.253-9.395,17.019-15.239
					c2.033,1.218,4.301,2.338,6.829,3.321c-0.003,0.037-0.012,0.073-0.015,0.11c-0.255,3.097,0.574,6.141,1.42,8.712
					c0.607,1.849,1.309,3.671,2.044,5.475c0.336-0.197,0.672-0.393,0.997-0.606c-0.7-1.727-1.369-3.467-1.948-5.229
					c-0.79-2.402-1.559-5.229-1.374-8.054C410.001,368.456,414.004,369.462,418.545,370.112z"/>
			</g>
			<g>
				<polygon style="fill:#A7E9AF;" points="447.315,336.222 416.602,336.222 410.752,384.344 453.164,384.344 				"/>
				<g>
					<path style="fill:#FFFFFF;" d="M425.331,341.604c0,1.248-1.012,2.259-2.259,2.259c-1.248,0-2.259-1.011-2.259-2.259
						c0-1.248,1.011-2.259,2.259-2.259C424.32,339.345,425.331,340.357,425.331,341.604z"/>
					<path style="fill:#FFFFFF;" d="M443.103,341.604c0,1.248-1.012,2.259-2.259,2.259c-1.248,0-2.259-1.011-2.259-2.259
						c0-1.248,1.011-2.259,2.259-2.259C442.092,339.345,443.103,340.357,443.103,341.604z"/>
				</g>
				<circle style="fill:#03A89E;" cx="431.958" cy="363.693" r="12.462"/>
				<g>
					<path style="fill:#FFFFFF;" d="M435.802,361.451c0.396,0,0.708-0.437,0.708-0.994s-0.312-0.994-0.708-0.994
						c-0.397,0-0.709,0.437-0.709,0.994S435.404,361.451,435.802,361.451z"/>
					<path style="fill:#FFFFFF;" d="M428.115,361.451c0.396,0,0.708-0.437,0.708-0.994s-0.311-0.994-0.708-0.994
						c-0.397,0-0.709,0.437-0.709,0.994S427.718,361.451,428.115,361.451z"/>
					<path style="fill:#FFFFFF;" d="M438.296,365.882c-0.09-0.083-0.208-0.129-0.331-0.129c-0.137,0-0.27,0.058-0.365,0.16
						c-1.535,1.673-3.539,2.595-5.642,2.595c-2.103,0-4.106-0.922-5.643-2.596c-0.093-0.101-0.226-0.159-0.362-0.159
						c-0.123,0-0.24,0.046-0.333,0.13c-0.198,0.184-0.212,0.495-0.03,0.696c1.726,1.879,3.987,2.914,6.368,2.914
						c2.382,0,4.644-1.035,6.368-2.915C438.508,366.379,438.495,366.067,438.296,365.882z"/>
				</g>
				<path style="fill:#03869E;" d="M441.137,341.605h-0.585v-5.001c0-4.739-3.855-8.594-8.594-8.594
					c-4.739,0-8.594,3.855-8.594,8.594v5.001h-0.585v-5.001c0-5.061,4.118-9.179,9.179-9.179s9.179,4.117,9.179,9.179V341.605z"/>
			</g>
		</g>
		<g>
			<g>
				<polygon style="fill:#924339;" points="349.424,384.344 345.562,384.344 348.395,379.467 352.257,379.467 				"/>
				<polygon style="fill:#924339;" points="362.094,384.344 365.956,384.344 363.124,379.467 359.261,379.467 				"/>
			</g>
			<g>
				<g>
					<path style="fill:#FF9D76;" d="M351.952,351.496l-9.713,6.025l-0.898-1.449c-1.664-2.682-0.838-6.206,1.844-7.869l0,0
						c2.682-1.664,6.205-0.838,7.869,1.844L351.952,351.496z"/>
					
						<rect x="346.587" y="354.324" transform="matrix(0.8498 -0.5271 0.5271 0.8498 -135.1793 236.6936)" style="fill:#8D2B39;" width="2.306" height="2.447"/>
				</g>
				<g>
					<path style="fill:#FF9D76;" d="M359.566,351.496l9.714,6.025l0.899-1.449c1.664-2.682,0.838-6.206-1.844-7.869l0,0
						c-2.682-1.664-6.205-0.838-7.869,1.844L359.566,351.496z"/>
					
						<rect x="362.555" y="354.395" transform="matrix(0.5271 -0.8498 0.8498 0.5271 -130.1144 477.2807)" style="fill:#8D2B39;" width="2.447" height="2.306"/>
				</g>
			</g>
			<circle style="fill:#EF4339;" cx="355.759" cy="368.037" r="14.618"/>
			
				<ellipse transform="matrix(0.6458 -0.7635 0.7635 0.6458 -154.9888 401.9781)" style="fill:#FF9D76;" cx="355.759" cy="368.037" rx="11.43" ry="11.43"/>
			<g>
				<path style="fill:#EF4339;" d="M356.923,358.651c0,0.473-0.384,0.857-0.857,0.857c-0.473,0-0.857-0.384-0.857-0.857
					c0-0.473,0.384-0.857,0.857-0.857C356.539,357.793,356.923,358.177,356.923,358.651z"/>
				<path style="fill:#FFFFFF;" d="M352.074,359.326c0.237,0.41,0.096,0.934-0.314,1.171c-0.41,0.237-0.934,0.096-1.171-0.314
					c-0.237-0.41-0.096-0.934,0.314-1.171C351.313,358.776,351.837,358.916,352.074,359.326z"/>
				<path style="fill:#EF4339;" d="M348.212,362.336c0.41,0.237,0.551,0.761,0.314,1.171c-0.237,0.41-0.761,0.55-1.171,0.314
					s-0.551-0.761-0.314-1.171C347.278,362.24,347.802,362.099,348.212,362.336z"/>
				<path style="fill:#FFFFFF;" d="M346.373,366.873c0.473,0,0.857,0.384,0.857,0.857c0,0.473-0.384,0.857-0.857,0.857
					c-0.473,0-0.857-0.384-0.857-0.857C345.516,367.257,345.9,366.873,346.373,366.873z"/>
				<path style="fill:#EF4339;" d="M347.049,371.722c0.41-0.237,0.934-0.096,1.171,0.314c0.237,0.41,0.096,0.934-0.314,1.171
					s-0.934,0.096-1.171-0.314C346.498,372.483,346.639,371.958,347.049,371.722z"/>
				<path style="fill:#FFFFFF;" d="M350.058,375.583c0.237-0.41,0.761-0.551,1.171-0.314s0.551,0.761,0.314,1.171
					c-0.237,0.41-0.761,0.551-1.171,0.314S349.821,375.993,350.058,375.583z"/>
				<path style="fill:#EF4339;" d="M354.595,377.423c0-0.474,0.384-0.857,0.857-0.857c0.474,0,0.857,0.384,0.857,0.857
					c0,0.473-0.384,0.857-0.857,0.857C354.979,378.28,354.595,377.896,354.595,377.423z"/>
				<path style="fill:#FFFFFF;" d="M359.444,376.747c-0.237-0.41-0.096-0.934,0.314-1.171c0.41-0.237,0.934-0.096,1.171,0.314
					s0.096,0.934-0.314,1.171C360.205,377.297,359.681,377.157,359.444,376.747z"/>
				<path style="fill:#EF4339;" d="M363.306,373.737c-0.41-0.237-0.551-0.761-0.314-1.171c0.237-0.41,0.761-0.551,1.171-0.314
					c0.41,0.237,0.551,0.761,0.314,1.171C364.24,373.834,363.716,373.974,363.306,373.737z"/>
				<circle style="fill:#FFFFFF;" cx="365.145" cy="368.343" r="0.857"/>
				<path style="fill:#EF4339;" d="M364.469,364.351c-0.41,0.237-0.934,0.096-1.171-0.314c-0.237-0.41-0.096-0.934,0.314-1.171
					c0.41-0.237,0.934-0.096,1.171,0.314C365.02,363.59,364.879,364.115,364.469,364.351z"/>
				<path style="fill:#FFFFFF;" d="M361.46,360.49c-0.237,0.41-0.761,0.551-1.171,0.314c-0.41-0.237-0.55-0.761-0.314-1.171
					c0.237-0.41,0.761-0.551,1.171-0.314C361.556,359.556,361.697,360.08,361.46,360.49z"/>
			</g>
			<polygon style="fill:#924339;" points="355.846,368.428 352.103,365.998 352.409,365.525 355.672,367.645 359.621,361.338 
				360.098,361.637 			"/>
		</g>
		<g>
			<g>
				
					<rect x="190.3" y="275.654" transform="matrix(0.3416 -0.9399 0.9399 0.3416 -107.0849 399.9947)" style="fill:#924339;" width="83.276" height="1.543"/>
				
					<rect x="186.974" y="273.435" transform="matrix(0.2055 -0.9786 0.9786 0.2055 -86.9625 441.7654)" style="fill:#924339;" width="83.276" height="2.02"/>
				<g>
					<circle style="fill:#384E72;" cx="221.336" cy="289.313" r="15.692"/>
					<path style="fill:#445F8C;" d="M221.336,289.313l-10.999-11.184c-0.318,0.313-0.619,0.643-0.91,0.983L221.336,289.313z"/>
					<path style="fill:#445F8C;" d="M220.747,289.313h0.589l0.724-15.655c-0.242-0.011-0.48-0.036-0.724-0.036
						c-1.613,0-3.169,0.245-4.634,0.697C217.84,278.308,220.747,289.313,220.747,289.313z"/>
					
						<ellipse transform="matrix(0.7071 -0.7071 0.7071 0.7071 -139.7471 241.2462)" style="fill:#03A89E;" cx="221.336" cy="289.313" rx="8.106" ry="8.106"/>
					<path style="fill:#2DD4CA;" d="M221.336,289.313l-5.682-5.777c-0.165,0.162-0.32,0.332-0.47,0.507L221.336,289.313z"/>
					<path style="fill:#2DD4CA;" d="M218.707,281.652c1.05,3.914,2.04,7.661,2.04,7.661h0.589l0.374-8.087
						c-0.125-0.006-0.248-0.019-0.374-0.019C220.415,281.207,219.533,281.368,218.707,281.652z"/>
					<circle style="fill:#03869E;" cx="221.336" cy="289.313" r="3.821"/>
				</g>
				<g>
					<g>
						<path style="fill:#924339;" d="M186.759,261.633l-2.307,0.649c0,0,0.064,0.047,0.183,0.14
							c1.589,1.232,13.196,10.464,16.93,23.733l2.205,0.468C201.112,274.35,186.759,261.633,186.759,261.633z"/>
						<path style="fill:#924339;" d="M205.486,256.363l2.307-0.649c0,0-0.03,0.073-0.083,0.215
							c-0.714,1.88-5.803,15.81-2.069,29.079l-1.638,1.549C199.872,274.699,205.486,256.363,205.486,256.363z"/>
					</g>
					<path style="fill:#EF4339;" d="M211.274,312.843L211.274,312.843c-1.72,0.484-3.508-0.518-3.992-2.239l-7.218-25.65l6.23-1.753
						l7.218,25.65C213.997,310.571,212.994,312.358,211.274,312.843z"/>
					<path style="fill:#924339;" d="M211.776,244.898l-0.152-0.538l-2.385,0.671l-1.097-3.897l3.507-0.987l-0.152-0.539
						l-3.507,0.987l-1.096-3.896l3.507-0.987l-0.152-0.54l-3.507,0.987l-1.096-3.897l3.507-0.987l-0.152-0.54l-3.507,0.987
						l-1.096-3.896l3.507-0.987l-0.152-0.54l-3.507,0.987l-1.096-3.896l3.507-0.987l-0.152-0.54l-3.507,0.987l-1.096-3.896
						l2.386-0.671l-0.152-0.54l-2.386,0.671l-1.096-3.896l0.833-0.234l-0.152-0.54l-0.832,0.234l-0.128-0.454l-0.54,0.152
						l0.128,0.453l-3.896,1.096l-1.096-3.896l1.269-0.357l-0.152-0.54l-1.269,0.357l-0.191-0.677l-0.54,0.152l0.191,0.677
						l-3.896,1.096l-0.925-3.287l-0.54,0.152l0.925,3.286l-3.896,1.096L185.02,210l-0.54,0.152l0.925,3.287l-3.896,1.096
						l-0.925-3.287l-0.54,0.152l0.925,3.287l-3.896,1.096l-0.925-3.287l-0.54,0.152l0.925,3.286l-3.896,1.097l-0.191-0.677
						l-0.54,0.152l0.191,0.677l-1.523,0.428l0.152,0.54l1.522-0.428l1.096,3.896l-4.547,1.28l0.152,0.54l0.112-0.031l1.096,3.896
						l-2.482,0.699l0.152,0.54l2.482-0.698l1.096,3.897l-3.055,0.86l0.152,0.54l3.055-0.859l1.096,3.896l-4.035,1.135l0.152,0.54
						l4.035-1.135l1.096,3.897l-4.035,1.136l0.152,0.538l4.035-1.135l1.097,3.897l-4.036,1.136l0.152,0.539l4.036-1.135l1.096,3.897
						l-3.055,0.86l0.152,0.538l3.055-0.859l1.097,3.898l-2.483,0.699l0.152,0.538l2.482-0.698l0.483,1.715l0.54-0.151l-0.483-1.716
						l3.896-1.096l1.097,3.897l-4.548,1.28l0.152,0.538l4.547-1.28l0.859,3.053l0.54-0.151l-0.859-3.054l3.896-1.096l1.097,3.897
						l-5.959,1.677l0.152,0.538l5.958-1.677l0.483,1.717l0.54-0.151l-0.483-1.718l3.897-1.096l0.877,3.117l0.54-0.151l-0.877-3.117
						l3.896-1.096l0.877,3.117l0.54-0.151l-0.877-3.117l3.897-1.096l0.483,1.717l0.54-0.151l-0.483-1.718l2.873-0.809l-0.152-0.538
						l-2.872,0.808l-1.097-3.897l3.896-1.096l0.859,3.054l0.54-0.151l-0.859-3.055l2.526-0.711l-0.152-0.538l-2.525,0.711
						l-1.097-3.897l3.897-1.096l0.483,1.716l0.54-0.151l-0.483-1.717L211.776,244.898z M207.451,240.746l-3.896,1.096l-1.096-3.896
						l3.896-1.096L207.451,240.746z M190.247,245.587l-1.096-3.896l3.896-1.096l1.096,3.896L190.247,245.587z M194.294,245.03
						l1.097,3.898l-3.896,1.096l-1.097-3.898L194.294,245.03z M187.75,236.715l-1.096-3.896l3.896-1.096l1.096,3.896L187.75,236.715
						z M191.798,236.158l1.097,3.897l-3.896,1.096l-1.096-3.897L191.798,236.158z M186.502,232.279l-1.096-3.896l3.896-1.096
						l1.096,3.896L186.502,232.279z M191.089,231.571l3.896-1.096l1.096,3.896l-3.896,1.096L191.089,231.571z M190.938,231.031
						l-1.096-3.896l3.896-1.096l1.096,3.896L190.938,231.031z M189.689,226.595l-1.096-3.896l3.896-1.096l1.097,3.896
						L189.689,226.595z M189.15,226.747l-3.896,1.096l-1.096-3.896l3.896-1.096L189.15,226.747z M184.714,227.995l-3.896,1.096
						l-1.096-3.896l3.896-1.096L184.714,227.995z M184.866,228.535l1.096,3.896l-3.896,1.096l-1.096-3.896L184.866,228.535z
						 M186.114,232.971l1.097,3.896l-3.896,1.096l-1.096-3.896L186.114,232.971z M187.362,237.406l1.097,3.897l-3.896,1.096
						l-1.097-3.897L187.362,237.406z M188.611,241.843l1.096,3.896l-3.897,1.096l-1.096-3.897L188.611,241.843z M193.586,240.443
						l3.896-1.096l1.096,3.896l-3.896,1.096L193.586,240.443z M193.434,239.903l-1.096-3.897l3.896-1.096l1.096,3.897
						L193.434,239.903z M196.774,234.758l3.896-1.096l1.096,3.897l-3.896,1.096L196.774,234.758z M196.622,234.219l-1.097-3.896
						l3.896-1.096l1.096,3.896L196.622,234.219z M195.374,229.783l-1.096-3.896l3.896-1.096l1.096,3.896L195.374,229.783z
						 M194.125,225.347l-1.096-3.896l3.896-1.096l1.096,3.896L194.125,225.347z M192.877,220.911l-1.096-3.896l3.896-1.096
						l1.096,3.896L192.877,220.911z M192.337,221.063l-3.896,1.096l-1.096-3.896l3.896-1.096L192.337,221.063z M187.902,222.311
						l-3.896,1.096l-1.096-3.896l3.896-1.096L187.902,222.311z M183.466,223.559l-3.896,1.096l-1.096-3.896l3.896-1.096
						L183.466,223.559z M179.03,224.807l-3.896,1.096l-1.096-3.896l3.896-1.096L179.03,224.807z M179.182,225.347l1.096,3.896
						l-3.896,1.096l-1.096-3.896L179.182,225.347z M180.43,229.783l1.096,3.896l-3.896,1.096l-1.096-3.896L180.43,229.783z
						 M181.678,234.219l1.096,3.897l-3.896,1.096l-1.096-3.896L181.678,234.219z M182.926,238.654l1.097,3.897l-3.896,1.096
						l-1.097-3.897L182.926,238.654z M184.175,243.091l1.096,3.897l-3.896,1.096l-1.096-3.897L184.175,243.091z M185.423,247.526
						l1.097,3.898l-3.896,1.096l-1.097-3.898L185.423,247.526z M185.962,247.374l3.897-1.096l1.097,3.898l-3.897,1.096
						L185.962,247.374z M191.107,250.714l1.097,3.897l-3.897,1.096l-1.097-3.897L191.107,250.714z M191.646,250.562l3.896-1.096
						l1.097,3.897l-3.896,1.096L191.646,250.562z M196.082,249.314l3.896-1.096l1.097,3.897l-3.897,1.096L196.082,249.314z
						 M195.931,248.775l-1.097-3.898l3.897-1.096l1.097,3.897L195.931,248.775z M199.27,243.63l3.896-1.096l1.097,3.897
						l-3.896,1.096L199.27,243.63z M199.118,243.091l-1.096-3.896l3.896-1.096l1.096,3.896L199.118,243.091z M206.202,236.31
						l-3.896,1.097l-1.097-3.897l3.897-1.096L206.202,236.31z M204.954,231.874l-3.896,1.096l-1.096-3.896l3.896-1.096
						L204.954,231.874z M203.706,227.438l-3.896,1.096l-1.096-3.896l3.896-1.096L203.706,227.438z M202.458,223.002l-3.896,1.096
						l-1.096-3.896l3.896-1.096L202.458,223.002z M200.113,214.67l1.096,3.896l-3.896,1.096l-1.096-3.896L200.113,214.67z
						 M194.429,211.482l1.096,3.896l-3.896,1.096l-1.096-3.896L194.429,211.482z M189.993,212.73l1.096,3.896l-3.896,1.096
						l-1.096-3.896L189.993,212.73z M185.557,213.979l1.096,3.896l-3.896,1.096l-1.096-3.896L185.557,213.979z M181.121,215.227
						l1.096,3.896l-3.896,1.096l-1.096-3.896L181.121,215.227z M172.789,217.572l3.896-1.097l1.096,3.896l-3.896,1.096
						L172.789,217.572z M169.601,223.256l3.896-1.096l1.096,3.896l-3.896,1.096L169.601,223.256z M170.85,227.691l3.896-1.096
						l1.096,3.896l-3.896,1.096L170.85,227.691z M172.098,232.128l3.896-1.096l1.096,3.896l-3.896,1.096L172.098,232.128z
						 M173.346,236.564l3.896-1.096l1.096,3.897l-3.896,1.096L173.346,236.564z M174.594,240.999l3.896-1.096l1.097,3.897
						l-3.896,1.096L174.594,240.999z M175.842,245.435l3.896-1.096l1.097,3.897l-3.896,1.096L175.842,245.435z M178.187,253.768
						l-1.097-3.898l3.896-1.096l1.097,3.898L178.187,253.768z M183.871,256.956l-1.097-3.897l3.896-1.097l1.097,3.897
						L183.871,256.956z M189.555,260.144l-1.097-3.897l3.897-1.096l1.097,3.897L189.555,260.144z M193.991,258.896l-1.097-3.897
						l3.896-1.096l1.097,3.897L193.991,258.896z M202.324,256.551l-3.897,1.096l-1.097-3.897l3.897-1.096L202.324,256.551z
						 M205.511,250.867l-3.896,1.096l-1.097-3.897l3.896-1.096L205.511,250.867z M204.802,246.279l-1.097-3.897l3.896-1.096
						l1.097,3.897L204.802,246.279z"/>
					<path style="fill:#EF4339;" d="M181.753,207.934c-11.806,3.322-17.786,18.777-13.357,34.519
						c4.43,15.742,17.592,25.81,29.398,22.488c11.807-3.322,17.787-18.777,13.357-34.519
						C206.722,214.68,193.56,204.611,181.753,207.934z M197.016,262.173c-10.66,3-22.545-6.091-26.544-20.305
						c-4-14.214,1.4-28.168,12.06-31.168c10.661-3,22.545,6.091,26.545,20.305C213.076,245.219,207.677,259.174,197.016,262.173z"/>
				</g>
				<g>
					
						<rect x="176.63" y="255.08" transform="matrix(0.9273 -0.3742 0.3742 0.9273 -92.5212 86.896)" style="fill:#03A89E;" width="1.785" height="53.276"/>
					
						<rect x="152.126" y="266.604" transform="matrix(0.7071 -0.7071 0.7071 0.7071 -141.0896 194.5461)" style="fill:#03869E;" width="24.336" height="1.959"/>
					
						<rect x="180.034" y="252.717" transform="matrix(0.9274 -0.3742 0.3742 0.9274 -91.3838 87.9897)" style="fill:#456B92;" width="1.785" height="53.276"/>
					
						<rect x="149.549" y="261.849" transform="matrix(0.7071 -0.7071 0.7071 0.7071 -138.265 191.8567)" style="fill:#384E72;" width="25.821" height="1.959"/>
					<circle style="fill:#03A89E;" cx="171.365" cy="254.488" r="1.696"/>
					<g>
						<path style="fill:#03A89E;" d="M164.295,284.821L164.295,284.821c-1.053,0.83-2.58,0.649-3.41-0.404l-0.71-0.9l3.814-3.006
							l0.71,0.9C165.529,282.464,165.349,283.991,164.295,284.821z"/>
						<path style="fill:#03A89E;" d="M151.395,268.453L151.395,268.453c-1.009,0.796-1.183,2.259-0.387,3.268l0.376,0.477
							c0.795,1.009,2.258,1.183,3.268,0.387l0,0c1.009-0.796,1.183-2.258,0.387-3.268l-0.376-0.477
							C153.868,267.831,152.405,267.657,151.395,268.453z"/>
						<path style="fill:#A7E9AF;" d="M168.069,277.296l-11.972,9.435l-4.091-5.191c-2.605-3.306-2.037-8.098,1.268-10.703l0,0
							c3.306-2.605,8.098-2.037,10.703,1.268L168.069,277.296z"/>
					</g>
				</g>
				<g>
					
						<rect x="173.635" y="284.139" transform="matrix(0.1129 -0.9936 0.9936 0.1129 -118.0903 447.7137)" style="fill:#03A89E;" width="36.1" height="11.702"/>
					
						<rect x="177.166" y="284.158" transform="matrix(0.1129 -0.9936 0.9936 0.1129 -116.3572 446.4866)" style="fill:#A7E9AF;" width="29.398" height="8.496"/>
					<path style="fill:#03A89E;" d="M195.951,279.272c-0.189,1.662-1.69,2.857-3.352,2.668c-1.662-0.189-2.857-1.69-2.668-3.352
						c0.189-1.662,1.69-2.857,3.352-2.668C194.946,276.109,196.14,277.61,195.951,279.272z"/>
					
						<rect x="191.31" y="283.981" transform="matrix(0.1129 -0.9936 0.9936 0.1129 -114.6735 445.2902)" style="fill:#FFFFFF;" width="1.46" height="5.769"/>
					
						<rect x="190.942" y="287.221" transform="matrix(0.1129 -0.9936 0.9936 0.1129 -118.2192 447.7986)" style="fill:#FFFFFF;" width="1.46" height="5.769"/>
					
						<rect x="190.574" y="290.461" transform="matrix(0.1129 -0.9936 0.9936 0.1129 -121.7625 450.3116)" style="fill:#FFFFFF;" width="1.46" height="5.769"/>
					
						<rect x="190.205" y="293.701" transform="matrix(0.1129 -0.9936 0.9936 0.1129 -125.3083 452.82)" style="fill:#FFFFFF;" width="1.46" height="5.769"/>
				</g>
				<g>
					<path style="fill:#EF4339;" d="M262.395,278.216l-0.318,2.07c-2.172,14.117-12.801,25.445-26.75,28.51l-2.045,0.45
						c-3.169,0.697-6.049-2.006-5.556-5.213l0.318-2.07c2.172-14.117,12.801-25.444,26.75-28.51l2.045-0.449
						C260.008,272.307,262.888,275.01,262.395,278.216z"/>
					<g>
						<path style="fill:#924339;" d="M260.35,286.964c0.348-0.947,0.658-1.912,0.924-2.895l-10.205-9.575
							c-0.965,0.328-1.908,0.699-2.831,1.107L260.35,286.964z"/>
						<path style="fill:#924339;" d="M239.05,307.756c0.965-0.328,1.908-0.699,2.831-1.107l-12.111-11.363
							c-0.348,0.947-0.658,1.912-0.924,2.895L239.05,307.756z"/>
					</g>
					
						<rect x="233.088" y="285.518" transform="matrix(0.6842 -0.7293 0.7293 0.6842 -133.0459 265.4093)" style="fill:#924339;" width="13.747" height="1.645"/>
					<g>
						
							<rect x="236.687" y="287.269" transform="matrix(0.6842 -0.7293 0.7293 0.6842 -137.2266 264.7695)" style="fill:#FFFFFF;" width="0.895" height="7.162"/>
						
							<rect x="238.473" y="285.364" transform="matrix(0.6842 -0.7293 0.7293 0.6842 -135.2737 265.4712)" style="fill:#FFFFFF;" width="0.895" height="7.162"/>
						
							<rect x="240.26" y="283.46" transform="matrix(0.6842 -0.7293 0.7293 0.6842 -133.321 266.1747)" style="fill:#FFFFFF;" width="0.895" height="7.162"/>
						
							<rect x="242.047" y="281.556" transform="matrix(0.6842 -0.7293 0.7293 0.6842 -131.3695 266.905)" style="fill:#FFFFFF;" width="0.895" height="7.162"/>
						
							<rect x="243.833" y="279.652" transform="matrix(0.6842 -0.7293 0.7293 0.6842 -129.4151 267.5761)" style="fill:#FFFFFF;" width="0.895" height="7.162"/>
					</g>
				</g>
			</g>
			<g>
				<rect x="168.069" y="302.134" style="fill:#EF7868;" width="31.26" height="82.21"/>
				<rect x="199.328" y="302.134" style="fill:#FF9D76;" width="50.681" height="82.21"/>
				<polygon style="fill:#FF9D76;" points="168.069,302.134 160.266,317.773 191.947,317.773 199.328,302.134 				"/>
				<polygon style="fill:#FFBAA1;" points="250.009,302.134 199.328,302.134 206.741,320.146 257.422,320.146 				"/>
				<rect x="178.065" y="317.773" style="fill:#EFA168;" width="7.568" height="66.571"/>
				<rect x="226.403" y="320.146" style="fill:#FFDBC5;" width="7.205" height="64.198"/>
			</g>
			<g>
				<rect x="209.558" y="341.205" style="fill:#EF7868;" width="16.846" height="43.139"/>
				<rect x="226.403" y="341.205" style="fill:#FF9D76;" width="40.407" height="43.139"/>
				<polygon style="fill:#D35F68;" points="209.558,341.205 205.515,334.196 272.56,334.196 266.81,341.205 				"/>
				<polygon style="fill:#FF8776;" points="226.403,341.205 230.48,334.196 272.56,334.196 266.81,341.205 				"/>
				<rect x="214.787" y="341.205" style="fill:#EFA168;" width="5.597" height="43.139"/>
				<polygon style="fill:#EF8368;" points="223.703,334.196 211.467,334.196 214.787,341.205 220.384,341.205 				"/>
				<polygon style="fill:#FFDBC5;" points="253.651,364.374 252.309,363.514 250.765,364.374 249.349,363.428 248.19,364.374 
					247.289,363.342 245.778,364.374 245.778,341.205 253.651,341.205 				"/>
				<polygon style="fill:#FFDBC5;" points="250.765,367.452 249.349,366.506 248.19,367.452 247.289,366.42 245.778,367.452 
					245.778,384.344 253.651,384.344 253.651,367.452 252.309,366.592 				"/>
				<polygon style="fill:#FFB6B6;" points="245.778,341.205 248.844,334.196 256.813,334.196 253.651,341.205 				"/>
				<rect x="229.484" y="369.93" style="fill:#FF9D76;" width="11.143" height="12.894"/>
				<rect x="229.484" y="369.93" style="fill:#FFDBC5;" width="11.143" height="12.894"/>
				<rect x="229.484" y="365.352" style="fill:#FFDBC5;" width="11.143" height="1.833"/>
				<rect x="229.484" y="360.942" style="fill:#FFDBC5;" width="2.625" height="1.833"/>
				<rect x="233.608" y="360.942" style="fill:#FFDBC5;" width="7.019" height="1.833"/>
				<rect x="229.484" y="356.531" style="fill:#FFDBC5;" width="3.731" height="1.833"/>
				<rect x="234.759" y="356.531" style="fill:#FFDBC5;" width="5.437" height="1.833"/>
			</g>
		</g>
		<g>
			<polygon style="fill:#FF9D76;" points="162.865,364.809 96.681,364.809 73.998,263.823 140.182,263.823 			"/>
			<polygon style="fill:#EF4339;" points="144.902,309.987 90.844,309.987 83.177,275.851 137.235,275.851 			"/>
			<polygon style="fill:#CA706E;" points="73.998,263.823 60.636,360.769 95.773,360.769 			"/>
			<polygon style="fill:#AF5E6E;" points="145.231,364.809 149.925,384.344 157.693,384.344 152.999,364.809 			"/>
			<polygon style="fill:#AF5E6E;" points="102.36,364.809 107.054,384.344 114.823,384.344 110.129,364.809 			"/>
			<polygon style="fill:#86486E;" points="74.553,384.344 67.678,384.344 80.821,294.201 84.99,312.76 			"/>
			<polygon style="fill:#FFDBC5;" points="154.051,342.027 129.831,324.533 132.279,335.43 98.362,335.43 101.326,348.624 
				135.242,348.624 137.69,359.522 			"/>
			
				<text transform="matrix(0.9659 0 0.2588 0.9659 88.0957 291.7207)" style="fill:#FFFFFF; font-family:'Roboto-Bold'; font-size:13.5801px;">GARAGE</text>
			
				<text transform="matrix(0.9659 0 0.2588 0.9659 100.433 304.1156)" style="fill:#FFFFFF; font-family:'Roboto-Bold'; font-size:13.5801px;">SALE!</text>
			
				<rect x="99.406" y="318.389" transform="matrix(0.8385 -0.5449 0.5449 0.8385 -157.7359 110.7154)" style="fill:#EF4339;" width="17.009" height="6.143"/>
		</g>
		<g>
			<rect x="287.594" y="185.439" style="fill:#EF4339;" width="76.238" height="47.959"/>
			<rect x="291.441" y="188.384" style="fill:#384E72;" width="68.543" height="42.069"/>
			<polygon style="fill:#873539;" points="328.382,244.013 323.043,244.013 321.865,233.399 329.56,233.399 			"/>
			<polygon style="fill:#EF4339;" points="338.737,244.013 312.689,244.013 311.634,247.271 339.791,247.271 			"/>
			<polygon style="fill:#445F8C;" points="298.944,230.454 296.004,230.454 301.813,188.384 304.753,188.384 			"/>
			<polygon style="fill:#445F8C;" points="313.228,230.454 308.506,230.454 314.315,188.384 319.037,188.384 			"/>
			<polygon style="fill:#445F8C;" points="302.697,230.405 301.632,230.405 307.441,188.336 308.506,188.336 			"/>
			<path style="fill:#FFFFFF;" d="M324.795,196.079v13.292h29.857v-13.292H324.795z M330.946,199.521
				c-0.681,0-1.232-0.552-1.232-1.232c0-0.681,0.552-1.232,1.232-1.232c0.68,0,1.232,0.552,1.232,1.232
				C332.178,198.969,331.627,199.521,330.946,199.521z M348.501,199.521c-0.681,0-1.232-0.552-1.232-1.232
				c0-0.681,0.552-1.232,1.232-1.232c0.681,0,1.232,0.552,1.232,1.232C349.733,198.969,349.182,199.521,348.501,199.521z"/>
			<g>
				<rect x="330.683" y="184.313" style="fill:#FFDBC5;" width="0.527" height="13.307"/>
				<rect x="348.237" y="184.313" style="fill:#FFDBC5;" width="0.527" height="13.307"/>
			</g>
			
				<text transform="matrix(1 0 0 1 327.7539 207.1573)" style="fill:#EF4339; font-family:'Roboto-BlackItalic'; font-size:9.6525px;">SALE</text>
		</g>
		<g>
			<polygon style="fill:#EF4339;" points="300.879,240.343 284.869,240.343 287.124,247.271 298.624,247.271 			"/>
			<polygon style="fill:#FF9D76;" points="285.322,241.735 300.426,241.735 300.879,240.343 284.869,240.343 			"/>
			<rect x="284.116" y="245.766" style="fill:#873539;" width="17.516" height="1.505"/>
		</g>
		<g>
			<path style="fill:#EF4339;" d="M280.034,371.405h-9.568c-7.847,0-14.69,5.331-16.611,12.939l0,0h42.789l0,0
				C294.724,376.736,287.881,371.405,280.034,371.405z"/>
			<rect x="269.311" y="366.559" style="fill:#FFDBC5;" width="11.878" height="4.846"/>
			<path style="fill:#FFDBC5;" d="M253.856,384.344h42.789c-0.4-1.584-1.023-3.061-1.815-4.42h-39.159
				C254.879,381.282,254.256,382.76,253.856,384.344z"/>
			<polygon style="fill:#924339;" points="276.877,164.568 273.624,164.568 272.569,366.559 277.931,366.559 			"/>
			<path style="fill:#EF4339;" d="M278.554,195.089c0,1.824-1.479,3.303-3.303,3.303s-3.303-1.479-3.303-3.303
				c0-1.824,1.479-3.303,3.303-3.303S278.554,193.265,278.554,195.089z"/>
			<path style="fill:#FFDBC5;" d="M279.395,265.73c0,2.289-1.855,4.144-4.144,4.144c-2.289,0-4.144-1.855-4.144-4.144
				c0-2.289,1.855-4.144,4.144-4.144C277.539,261.586,279.395,263.441,279.395,265.73z"/>
			<path style="fill:#EF4339;" d="M288.099,100.868h-5.202H263.37h-5.202c0,0-2.601,32.272-20.157,63.7h6.502h57.241h6.502
				C290.7,133.14,288.099,100.868,288.099,100.868z"/>
			<g>
				<path style="fill:#FFDBC5;" d="M262.676,100.868c0,0,0,32.945-18.857,63.7h8.67c11.488-21.914,14.305-63.7,14.305-63.7H262.676z
					"/>
				<path style="fill:#FFDBC5;" d="M283.591,100.868c0,0,0,32.945,18.857,63.7h-8.67c-11.487-21.914-14.305-63.7-14.305-63.7
					H283.591z"/>
			</g>
			<path style="fill:#FFDBC5;" d="M283.347,164.568c-9.545-19.521-8.631-63.7-8.631-63.7h-3.832c0,0,0.914,44.18-8.631,63.7H283.347
				z"/>
			<rect x="271.429" y="364.03" style="fill:#EF4339;" width="7.642" height="2.529"/>
			<rect x="281.604" y="164.568" style="fill:#FF9D76;" width="0.432" height="38.039"/>
			<path style="fill:#924339;" d="M282.783,203.027c0,0.532-0.431,0.963-0.963,0.963c-0.532,0-0.963-0.431-0.963-0.963
				c0-0.532,0.431-0.963,0.963-0.963C282.352,202.064,282.783,202.496,282.783,203.027z"/>
		</g>
		<g>
			<rect x="313.978" y="287.776" style="fill:#FF9D76;" width="72.935" height="8.121"/>
			<rect x="313.978" y="292.374" style="fill:#FFDBC5;" width="72.935" height="3.523"/>
			<rect x="319.398" y="295.897" style="fill:#EF4339;" width="62.095" height="5.082"/>
			<g>
				<path style="fill:#924339;" d="M341.463,300.979c0,0-26.719,30.963-26.719,83.365h2.819
					c2.322-58.401,32.882-83.365,32.882-83.365H341.463z"/>
				<path style="fill:#924339;" d="M359.427,300.979c0,0,26.72,30.963,26.72,83.365h-2.819
					c-2.322-58.401-32.882-83.365-32.882-83.365H359.427z"/>
			</g>
		</g>
		<g>
			<polygon style="fill:#456B92;" points="396.467,325.893 386.652,331.282 378.536,316.501 381.235,309.786 388.35,311.112 			"/>
			<path style="fill:#03869E;" d="M381.213,300.979h-0.583c2.017,4.203,2.157,9.434,2.156,10.765
				c-16.722-3.869-14.178-23.76-14.151-23.969h-0.694c-0.028,0.214-2.496,20.77,15.049,24.554l0.309,0.067l0.01-0.316
				C383.318,311.804,383.474,305.862,381.213,300.979z"/>
			
				<text transform="matrix(0.8661 -0.4998 0.4998 0.8661 385.5789 326.6418)" style="fill:#FFFFFF; font-family:'Roboto-Medium'; font-size:11.3878px;">%</text>
		</g>
		<g>
			<path style="fill:#EF4339;" d="M152.855,167.453l8.799,31.268l70.166-19.745l-8.799-31.268L152.855,167.453z M164.221,172.935
				c-1.115,0.314-2.274-0.336-2.588-1.451c-0.314-1.115,0.336-2.274,1.451-2.588c1.115-0.314,2.274,0.336,2.587,1.451
				C165.985,171.463,165.336,172.621,164.221,172.935z M216.182,158.312c-1.115,0.314-2.274-0.336-2.587-1.451
				c-0.314-1.115,0.336-2.274,1.451-2.588c1.115-0.314,2.274,0.336,2.587,1.451C217.947,156.84,217.298,157.999,216.182,158.312z"/>
			<path style="fill:#FFFFFF;" d="M228.393,177.292L163.7,195.497l-7.418-26.359l64.693-18.205L228.393,177.292z M164.046,194.88
				l63.73-17.934l-7.147-25.397l-63.73,17.934L164.046,194.88z"/>
			
				<text transform="matrix(0.9626 -0.2709 0.2709 0.9626 168.9539 187.4423)" style="fill:#FFFFFF; font-family:'Roboto-BlackItalic'; font-size:21.912px;">SALE</text>
			<polygon style="fill:#384E72;" points="215.361,155.698 180.613,131.551 163.558,170.276 162.871,169.974 180.294,130.416 
				215.79,155.082 			"/>
		</g>
		<polygon style="fill:#03797C;" points="273.134,247.271 265.126,247.271 265.126,237.969 274.429,237.969 		"/>
		<polygon style="fill:#036263;" points="269.13,247.271 265.126,247.271 265.126,237.969 270.425,237.969 		"/>
		<g>
			<polygon style="fill:#EF4339;" points="267.988,247.271 260.54,247.271 258.356,228.666 270.172,228.666 			"/>
			<polygon style="fill:#FF9D76;" points="258.837,232.764 269.691,232.764 270.172,228.666 258.356,228.666 			"/>
			<path style="fill:#039898;" d="M264.565,228.666h-2.597c0,0-4.352-17.362,2.597-25.294
				C264.565,203.372,265.828,219.847,264.565,228.666z"/>
			<path style="fill:#03797C;" d="M270.531,211.795c-2.555,1.403-4.263,3.472-5.407,5.683c0.018,3.975-0.111,8.062-0.559,11.188
				h4.282C267.384,220.236,270.531,211.795,270.531,211.795z"/>
			<path style="fill:#03797C;" d="M249.684,210.04c0,0,4.155,10.368,9.799,18.626h2.485c0,0-0.976-3.902-1.265-8.851
				C258.745,215.901,255.392,211.792,249.684,210.04z"/>
			<path style="fill:#A7E9AF;" d="M261.235,210.639c-0.719-2.875-2.578-8.904-6.567-14.427c0,0-0.66,9.215,1.192,17.263
				c2.166,1.874,3.738,4.131,4.843,6.34c0,0,0,0.001,0,0.001C260.534,216.925,260.6,213.677,261.235,210.639z"/>
			<path style="fill:#A7E9AF;" d="M265.124,217.479c0.675-1.304,1.552-2.554,2.677-3.652c0.384-2.708,0.576-5.813,0.576-5.813
				c-1.181,0.633-2.46,2.242-3.376,3.567c0.073,2.065,0.123,4.352,0.122,6.654C265.124,217.983,265.125,217.73,265.124,217.479z"/>
			<path style="fill:#FFFFFF;" d="M263.392,208.065c-0.056,2.946-0.184,5.887-0.162,8.832c-0.066,2.944,0.011,5.884,0.162,8.827
				c-0.386-2.926-0.404-5.883-0.434-8.829C263.033,213.948,263.102,210.999,263.392,208.065z"/>
			<path style="fill:#FFFFFF;" d="M252.659,213.125c1.696,1.862,3.18,3.911,4.521,6.046c1.295,2.156,2.467,4.436,3.033,6.9
				c-0.782-2.394-1.949-4.624-3.265-6.757c-0.647-1.075-1.351-2.113-2.065-3.145C254.162,215.141,253.429,214.12,252.659,213.125z"
				/>
			<path style="fill:#FFFFFF;" d="M268.377,214.625c-0.259,1.011-0.485,2.029-0.703,3.047c-0.211,1.019-0.418,2.039-0.57,3.068
				c-0.333,2.052-0.526,4.126-0.415,6.213c-0.338-2.071-0.159-4.191,0.145-6.255C267.185,218.634,267.665,216.59,268.377,214.625z"
				/>
			<path style="fill:#FFFFFF;" d="M255.826,201c0.771,2.276,1.395,4.597,1.985,6.925c0.555,2.336,1.076,4.686,1.383,7.07
				C258.161,210.306,256.957,205.669,255.826,201z"/>
			<path style="fill:#FFFFFF;" d="M266.984,210.537c-0.055,0.65-0.21,1.267-0.357,1.888c-0.178,0.613-0.347,1.226-0.622,1.821
				c0.052-0.641,0.209-1.264,0.357-1.888C266.542,211.742,266.713,211.123,266.984,210.537z"/>
			<polygon style="fill:#873539;" points="260.311,245.32 260.54,247.271 267.988,247.271 268.217,245.32 			"/>
		</g>
		<rect x="342.259" y="245.87" style="fill:#873539;" width="8.354" height="1.401"/>
		<rect x="343.841" y="244.399" style="fill:#EF4339;" width="5.191" height="1.471"/>
	</g>
</g>
</svg>
